<svg version="1.1" xmlns="http://www.w3.org/2000/svg" xmlns:xlink="http://www.w3.org/1999/xlink" width="800" height="600"><defs><clipPath id="tulSINvEuyyr"><path fill="none" stroke="none" d=" M 0 0 L 800 0 L 800 600 L 0 600 L 0 0 Z"/></clipPath></defs><g transform="scale(1,1)" clip-path="url(#tulSINvEuyyr)"><g><path fill="none" stroke="rgb(192,192,192)" paint-order="fill stroke markers" d=" M 66.5 0.5 L 66.5 600.5 M 66.5 0.5 L 66.5 600.5 M 133.5 0.5 L 133.5 600.5 M 200.5 0.5 L 200.5 600.5 M 266.5 0.5 L 266.5 600.5 M 333.5 0.5 L 333.5 600.5 M 466.5 0.5 L 466.5 600.5 M 533.5 0.5 L 533.5 600.5 M 600.5 0.5 L 600.5 600.5 M 666.5 0.5 L 666.5 600.5 M 733.5 0.5 L 733.5 600.5 M 800.5 0.5 L 800.5 600.5" stroke-opacity="1" stroke-linecap="round" stroke-linejoin="round" stroke-miterlimit="10"/><path fill="none" stroke="rgb(192,192,192)" paint-order="fill stroke markers" d=" M 13.5 0.5 L 13.5 600.5 M 26.5 0.5 L 26.5 600.5 M 39.5 0.5 L 39.5 600.5 M 53.5 0.5 L 53.5 600.5 M 79.5 0.5 L 79.5 600.5 M 93.5 0.5 L 93.5 600.5 M 106.5 0.5 L 106.5 600.5 M 119.5 0.5 L 119.5 600.5 M 146.5 0.5 L 146.5 600.5 M 160.5 0.5 L 160.5 600.5 M 173.5 0.5 L 173.5 600.5 M 186.5 0.5 L 186.5 600.5 M 213.5 0.5 L 213.5 600.5 M 226.5 0.5 L 226.5 600.5 M 240.5 0.5 L 240.5 600.5 M 253.5 0.5 L 253.5 600.5 M 280.5 0.5 L 280.5 600.5 M 293.5 0.5 L 293.5 600.5 M 306.5 0.5 L 306.5 600.5 M 320.5 0.5 L 320.5 600.5 M 346.5 0.5 L 346.5 600.5 M 360.5 0.5 L 360.5 600.5 M 373.5 0.5 L 373.5 600.5 M 386.5 0.5 L 386.5 600.5 M 413.5 0.5 L 413.5 600.5 M 426.5 0.5 L 426.5 600.5 M 440.5 0.5 L 440.5 600.5 M 453.5 0.5 L 453.5 600.5 M 480.5 0.5 L 480.5 600.5 M 493.5 0.5 L 493.5 600.5 M 506.5 0.5 L 506.5 600.5 M 520.5 0.5 L 520.5 600.5 M 546.5 0.5 L 546.5 600.5 M 560.5 0.5 L 560.5 600.5 M 573.5 0.5 L 573.5 600.5 M 586.5 0.5 L 586.5 600.5 M 613.5 0.5 L 613.5 600.5 M 626.5 0.5 L 626.5 600.5 M 640.5 0.5 L 640.5 600.5 M 653.5 0.5 L 653.5 600.5 M 680.5 0.5 L 680.5 600.5 M 693.5 0.5 L 693.5 600.5 M 706.5 0.5 L 706.5 600.5 M 720.5 0.5 L 720.5 600.5 M 746.5 0.5 L 746.5 600.5 M 760.5 0.5 L 760.5 600.5 M 773.5 0.5 L 773.5 600.5 M 786.5 0.5 L 786.5 600.5" stroke-opacity="0.23529411764705882" stroke-linecap="round" stroke-linejoin="round" stroke-miterlimit="10"/><path fill="none" stroke="rgb(192,192,192)" paint-order="fill stroke markers" d=" M 0.5 0.5 L 800.5 0.5 M 0.5 0.5 L 800.5 0.5 M 0.5 75.5 L 800.5 75.5 M 0.5 150.5 L 800.5 150.5 M 0.5 225.5 L 800.5 225.5 M 0.5 375.5 L 800.5 375.5 M 0.5 450.5 L 800.5 450.5 M 0.5 525.5 L 800.5 525.5 M 0.5 600.5 L 800.5 600.5" stroke-opacity="1" stroke-linecap="round" stroke-linejoin="round" stroke-miterlimit="10"/><path fill="none" stroke="rgb(192,192,192)" paint-order="fill stroke markers" d=" M 0.5 0.5 L 800.5 0.5 M 0.5 15.5 L 800.5 15.5 M 0.5 30.5 L 800.5 30.5 M 0.5 45.5 L 800.5 45.5 M 0.5 60.5 L 800.5 60.5 M 0.5 90.5 L 800.5 90.5 M 0.5 105.5 L 800.5 105.5 M 0.5 120.5 L 800.5 120.5 M 0.5 135.5 L 800.5 135.5 M 0.5 165.5 L 800.5 165.5 M 0.5 180.5 L 800.5 180.5 M 0.5 195.5 L 800.5 195.5 M 0.5 210.5 L 800.5 210.5 M 0.5 240.5 L 800.5 240.5 M 0.5 255.5 L 800.5 255.5 M 0.5 270.5 L 800.5 270.5 M 0.5 285.5 L 800.5 285.5 M 0.5 315.5 L 800.5 315.5 M 0.5 330.5 L 800.5 330.5 M 0.5 345.5 L 800.5 345.5 M 0.5 360.5 L 800.5 360.5 M 0.5 390.5 L 800.5 390.5 M 0.5 405.5 L 800.5 405.5 M 0.5 420.5 L 800.5 420.5 M 0.5 435.5 L 800.5 435.5 M 0.5 465.5 L 800.5 465.5 M 0.5 480.5 L 800.5 480.5 M 0.5 495.5 L 800.5 495.5 M 0.5 510.5 L 800.5 510.5 M 0.5 540.5 L 800.5 540.5 M 0.5 555.5 L 800.5 555.5 M 0.5 570.5 L 800.5 570.5 M 0.5 585.5 L 800.5 585.5" stroke-opacity="0.23529411764705882" stroke-linecap="round" stroke-linejoin="round" stroke-miterlimit="10"/><path fill="none" stroke="rgb(0,0,0)" paint-order="fill stroke markers" d=" M 400.5 2.5 L 400.5 600.5" stroke-opacity="1" stroke-miterlimit="10"/><path fill="none" stroke="rgb(0,0,0)" paint-order="fill stroke markers" d=" M 400.5 1.5 L 396.5 5.5" stroke-opacity="1" stroke-miterlimit="10"/><path fill="none" stroke="rgb(0,0,0)" paint-order="fill stroke markers" d=" M 400.5 1.5 L 404.5 5.5" stroke-opacity="1" stroke-miterlimit="10"/><path fill="none" stroke="rgb(0,0,0)" paint-order="fill stroke markers" d=" M 0.5 300.5 L 798.5 300.5" stroke-opacity="1" stroke-miterlimit="10"/><path fill="none" stroke="rgb(0,0,0)" paint-order="fill stroke markers" d=" M 799.5 300.5 L 795.5 296.5" stroke-opacity="1" stroke-miterlimit="10"/><path fill="none" stroke="rgb(0,0,0)" paint-order="fill stroke markers" d=" M 799.5 300.5 L 795.5 304.5" stroke-opacity="1" stroke-miterlimit="10"/><text fill="none" stroke="rgb(255,255,255)" font-family="geogebra-sans-serif, sans-serif" font-size="12px" font-style="normal" font-weight="normal" text-decoration="normal" x="55" y="316" text-anchor="start" dominant-baseline="alphabetic" stroke-opacity="1" stroke-linejoin="bevel" stroke-miterlimit="10" stroke-width="3">–2.5</text><text fill="rgb(0,0,0)" stroke="none" font-family="geogebra-sans-serif, sans-serif" font-size="12px" font-style="normal" font-weight="normal" text-decoration="normal" x="55" y="316" text-anchor="start" dominant-baseline="alphabetic" fill-opacity="1">–2.5</text><text fill="none" stroke="rgb(255,255,255)" font-family="geogebra-sans-serif, sans-serif" font-size="12px" font-style="normal" font-weight="normal" text-decoration="normal" x="128" y="316" text-anchor="start" dominant-baseline="alphabetic" stroke-opacity="1" stroke-linejoin="bevel" stroke-miterlimit="10" stroke-width="3">–2</text><text fill="rgb(0,0,0)" stroke="none" font-family="geogebra-sans-serif, sans-serif" font-size="12px" font-style="normal" font-weight="normal" text-decoration="normal" x="128" y="316" text-anchor="start" dominant-baseline="alphabetic" fill-opacity="1">–2</text><text fill="none" stroke="rgb(255,255,255)" font-family="geogebra-sans-serif, sans-serif" font-size="12px" font-style="normal" font-weight="normal" text-decoration="normal" x="189" y="316" text-anchor="start" dominant-baseline="alphabetic" stroke-opacity="1" stroke-linejoin="bevel" stroke-miterlimit="10" stroke-width="3">–1.5</text><text fill="rgb(0,0,0)" stroke="none" font-family="geogebra-sans-serif, sans-serif" font-size="12px" font-style="normal" font-weight="normal" text-decoration="normal" x="189" y="316" text-anchor="start" dominant-baseline="alphabetic" fill-opacity="1">–1.5</text><text fill="none" stroke="rgb(255,255,255)" font-family="geogebra-sans-serif, sans-serif" font-size="12px" font-style="normal" font-weight="normal" text-decoration="normal" x="261" y="316" text-anchor="start" dominant-baseline="alphabetic" stroke-opacity="1" stroke-linejoin="bevel" stroke-miterlimit="10" stroke-width="3">–1</text><text fill="rgb(0,0,0)" stroke="none" font-family="geogebra-sans-serif, sans-serif" font-size="12px" font-style="normal" font-weight="normal" text-decoration="normal" x="261" y="316" text-anchor="start" dominant-baseline="alphabetic" fill-opacity="1">–1</text><text fill="none" stroke="rgb(255,255,255)" font-family="geogebra-sans-serif, sans-serif" font-size="12px" font-style="normal" font-weight="normal" text-decoration="normal" x="322" y="316" text-anchor="start" dominant-baseline="alphabetic" stroke-opacity="1" stroke-linejoin="bevel" stroke-miterlimit="10" stroke-width="3">–0.5</text><text fill="rgb(0,0,0)" stroke="none" font-family="geogebra-sans-serif, sans-serif" font-size="12px" font-style="normal" font-weight="normal" text-decoration="normal" x="322" y="316" text-anchor="start" dominant-baseline="alphabetic" fill-opacity="1">–0.5</text><text fill="none" stroke="rgb(255,255,255)" font-family="geogebra-sans-serif, sans-serif" font-size="12px" font-style="normal" font-weight="normal" text-decoration="normal" x="458" y="316" text-anchor="start" dominant-baseline="alphabetic" stroke-opacity="1" stroke-linejoin="bevel" stroke-miterlimit="10" stroke-width="3">0.5</text><text fill="rgb(0,0,0)" stroke="none" font-family="geogebra-sans-serif, sans-serif" font-size="12px" font-style="normal" font-weight="normal" text-decoration="normal" x="458" y="316" text-anchor="start" dominant-baseline="alphabetic" fill-opacity="1">0.5</text><text fill="none" stroke="rgb(255,255,255)" font-family="geogebra-sans-serif, sans-serif" font-size="12px" font-style="normal" font-weight="normal" text-decoration="normal" x="531" y="316" text-anchor="start" dominant-baseline="alphabetic" stroke-opacity="1" stroke-linejoin="bevel" stroke-miterlimit="10" stroke-width="3">1</text><text fill="rgb(0,0,0)" stroke="none" font-family="geogebra-sans-serif, sans-serif" font-size="12px" font-style="normal" font-weight="normal" text-decoration="normal" x="531" y="316" text-anchor="start" dominant-baseline="alphabetic" fill-opacity="1">1</text><text fill="none" stroke="rgb(255,255,255)" font-family="geogebra-sans-serif, sans-serif" font-size="12px" font-style="normal" font-weight="normal" text-decoration="normal" x="592" y="316" text-anchor="start" dominant-baseline="alphabetic" stroke-opacity="1" stroke-linejoin="bevel" stroke-miterlimit="10" stroke-width="3">1.5</text><text fill="rgb(0,0,0)" stroke="none" font-family="geogebra-sans-serif, sans-serif" font-size="12px" font-style="normal" font-weight="normal" text-decoration="normal" x="592" y="316" text-anchor="start" dominant-baseline="alphabetic" fill-opacity="1">1.5</text><text fill="none" stroke="rgb(255,255,255)" font-family="geogebra-sans-serif, sans-serif" font-size="12px" font-style="normal" font-weight="normal" text-decoration="normal" x="664" y="316" text-anchor="start" dominant-baseline="alphabetic" stroke-opacity="1" stroke-linejoin="bevel" stroke-miterlimit="10" stroke-width="3">2</text><text fill="rgb(0,0,0)" stroke="none" font-family="geogebra-sans-serif, sans-serif" font-size="12px" font-style="normal" font-weight="normal" text-decoration="normal" x="664" y="316" text-anchor="start" dominant-baseline="alphabetic" fill-opacity="1">2</text><text fill="none" stroke="rgb(255,255,255)" font-family="geogebra-sans-serif, sans-serif" font-size="12px" font-style="normal" font-weight="normal" text-decoration="normal" x="725" y="316" text-anchor="start" dominant-baseline="alphabetic" stroke-opacity="1" stroke-linejoin="bevel" stroke-miterlimit="10" stroke-width="3">2.5</text><text fill="rgb(0,0,0)" stroke="none" font-family="geogebra-sans-serif, sans-serif" font-size="12px" font-style="normal" font-weight="normal" text-decoration="normal" x="725" y="316" text-anchor="start" dominant-baseline="alphabetic" fill-opacity="1">2.5</text><text fill="none" stroke="rgb(255,255,255)" font-family="geogebra-sans-serif, sans-serif" font-size="12px" font-style="normal" font-weight="normal" text-decoration="normal" x="380" y="530" text-anchor="start" dominant-baseline="alphabetic" stroke-opacity="1" stroke-linejoin="bevel" stroke-miterlimit="10" stroke-width="3">–3</text><text fill="rgb(0,0,0)" stroke="none" font-family="geogebra-sans-serif, sans-serif" font-size="12px" font-style="normal" font-weight="normal" text-decoration="normal" x="380" y="530" text-anchor="start" dominant-baseline="alphabetic" fill-opacity="1">–3</text><text fill="none" stroke="rgb(255,255,255)" font-family="geogebra-sans-serif, sans-serif" font-size="12px" font-style="normal" font-weight="normal" text-decoration="normal" x="380" y="455" text-anchor="start" dominant-baseline="alphabetic" stroke-opacity="1" stroke-linejoin="bevel" stroke-miterlimit="10" stroke-width="3">–2</text><text fill="rgb(0,0,0)" stroke="none" font-family="geogebra-sans-serif, sans-serif" font-size="12px" font-style="normal" font-weight="normal" text-decoration="normal" x="380" y="455" text-anchor="start" dominant-baseline="alphabetic" fill-opacity="1">–2</text><text fill="none" stroke="rgb(255,255,255)" font-family="geogebra-sans-serif, sans-serif" font-size="12px" font-style="normal" font-weight="normal" text-decoration="normal" x="380" y="380" text-anchor="start" dominant-baseline="alphabetic" stroke-opacity="1" stroke-linejoin="bevel" stroke-miterlimit="10" stroke-width="3">–1</text><text fill="rgb(0,0,0)" stroke="none" font-family="geogebra-sans-serif, sans-serif" font-size="12px" font-style="normal" font-weight="normal" text-decoration="normal" x="380" y="380" text-anchor="start" dominant-baseline="alphabetic" fill-opacity="1">–1</text><text fill="none" stroke="rgb(255,255,255)" font-family="geogebra-sans-serif, sans-serif" font-size="12px" font-style="normal" font-weight="normal" text-decoration="normal" x="387" y="230" text-anchor="start" dominant-baseline="alphabetic" stroke-opacity="1" stroke-linejoin="bevel" stroke-miterlimit="10" stroke-width="3">1</text><text fill="rgb(0,0,0)" stroke="none" font-family="geogebra-sans-serif, sans-serif" font-size="12px" font-style="normal" font-weight="normal" text-decoration="normal" x="387" y="230" text-anchor="start" dominant-baseline="alphabetic" fill-opacity="1">1</text><text fill="none" stroke="rgb(255,255,255)" font-family="geogebra-sans-serif, sans-serif" font-size="12px" font-style="normal" font-weight="normal" text-decoration="normal" x="387" y="155" text-anchor="start" dominant-baseline="alphabetic" stroke-opacity="1" stroke-linejoin="bevel" stroke-miterlimit="10" stroke-width="3">2</text><text fill="rgb(0,0,0)" stroke="none" font-family="geogebra-sans-serif, sans-serif" font-size="12px" font-style="normal" font-weight="normal" text-decoration="normal" x="387" y="155" text-anchor="start" dominant-baseline="alphabetic" fill-opacity="1">2</text><text fill="none" stroke="rgb(255,255,255)" font-family="geogebra-sans-serif, sans-serif" font-size="12px" font-style="normal" font-weight="normal" text-decoration="normal" x="387" y="80" text-anchor="start" dominant-baseline="alphabetic" stroke-opacity="1" stroke-linejoin="bevel" stroke-miterlimit="10" stroke-width="3">3</text><text fill="rgb(0,0,0)" stroke="none" font-family="geogebra-sans-serif, sans-serif" font-size="12px" font-style="normal" font-weight="normal" text-decoration="normal" x="387" y="80" text-anchor="start" dominant-baseline="alphabetic" fill-opacity="1">3</text><text fill="none" stroke="rgb(255,255,255)" font-family="geogebra-sans-serif, sans-serif" font-size="12px" font-style="normal" font-weight="normal" text-decoration="normal" x="387" y="316" text-anchor="start" dominant-baseline="alphabetic" stroke-opacity="1" stroke-linejoin="bevel" stroke-miterlimit="10" stroke-width="3">0</text><text fill="rgb(0,0,0)" stroke="none" font-family="geogebra-sans-serif, sans-serif" font-size="12px" font-style="normal" font-weight="normal" text-decoration="normal" x="387" y="316" text-anchor="start" dominant-baseline="alphabetic" fill-opacity="1">0</text><path fill="none" stroke="rgb(0,0,255)" paint-order="fill stroke markers" d=" M 0 289.30900926942917 L 3.125 287.5091360310675 L 6.25 285.6951539042685 L 9.375 283.8648779969076 L 12.5 282.01604780899777 L 15.625 280.1463155281422 L 18.75 278.25323343121903 L 21.875 276.3342402423524 L 25 274.38664627800745 L 28.125 272.40761718711855 L 31.25 270.3941560668424 L 34.375 268.34308370198255 L 37.5 266.2510166373281 L 40.625 264.114342745816 L 43.75 261.9291938999917 L 46.875 259.6914152877506 L 50 257.3965308333616 L 53.125 255.03970408825396 L 56.25 252.6156938391647 L 59.375 250.11880353916172 L 62.5 247.54282349363666 L 65.625 244.8809645207912 L 68.75 242.12578154437392 L 71.875 239.2690852525334 L 75 236.30183955383765 L 78.125 233.2140420578516 L 81.25 229.99458417433766 L 84.375 226.63108662399813 L 87.5 223.1097051338349 L 90.625 219.41489978327883 L 93.75 215.52915978057922 L 96.875 211.43267325587837 L 100 207.10292878319274 L 103.125 202.51423154473335 L 106.25 197.6371119849371 L 109.375 192.43759798044613 L 112.5 186.8763122734589 L 115.625 180.9073441544785 L 118.75 174.4768266209707 L 121.875 167.5211252068203 L 125 159.96450890742224 L 128.125 151.71612174200814 L 131.25 142.66599700854132 L 134.375 132.67974151317574 L 135.9375 127.2851679508451 L 137.5 121.59134144667988 L 139.0625 115.57095032907648 L 140.625 109.19326706259841 L 142.1875 102.42359653594721 L 143.75 95.22261385670166 L 145.31249999999997 87.54556494399296 L 146.87499999999997 79.34129556792149 L 148.43749999999997 70.55106429080314 L 149.99999999999997 61.107081037407795 L 150.78124999999997 56.11583643874235 L 151.56249999999997 50.930694343201 L 152.34374999999997 45.53975478992356 L 153.12499999999997 39.9301246350671 L 153.90624999999997 34.087811707188564 L 154.68749999999997 27.99760513200266 L 155.46874999999997 21.642939671127806 L 156.24999999999997 15.005741526811335 L 157.03124999999997 8.066252589660166 L 157.81249999999997 0.8028295294683403 L 158.59374999999997 -6.808286574607621 M 222.65625 605.5262999848103 L 223.4375 597.9743387767073 L 224.21875 590.7659903679976 L 225 583.8778624901908 L 225.78125 577.2886381838578 L 226.5625 570.9788506249649 L 227.34375 564.930686646351 L 228.125 559.1278147768201 L 228.90625 553.5552343012312 L 229.6875 548.1991424034927 L 230.46875 543.0468169145093 L 231.25 538.0865125677428 L 232.8125 528.6993288476522 L 234.375 519.959915496725 L 235.9375 511.8012928829768 L 237.5 504.16539722765333 L 239.0625 497.00164445127723 L 240.625 490.26576295051484 L 242.1875 483.9188383311941 L 243.75 477.9265265123455 L 245.3125 472.2584015667176 L 246.875 466.8874121289965 L 250 456.94284572791344 L 253.125 447.92829279272166 L 256.25 439.71049578686154 L 259.375 432.18037154151205 L 262.5 425.2477597765201 L 265.625 418.837483301543 L 268.75 412.88635292683284 L 271.875 407.3408629372861 L 275 402.1553982282171 L 278.125 397.2908252781114 L 281.25 392.7133743702465 L 284.375 388.3937451479553 L 287.5 384.30638510284206 L 290.625 380.4289031869836 L 293.75 376.7415898998813 L 296.875 373.22702193747534 L 300 369.86973449580546 L 303.125 366.6559480765496 L 306.25 363.57333948349145 L 309.375 360.6108488680577 L 312.5 357.7585163508156 L 315.625 355.0073430392541 L 318.75 352.34917227176993 L 321.875 349.7765877110951 L 325 347.28282553769134 L 328.125 344.8616984926184 L 331.25 342.507529918544 L 334.375 340.2150962685912 L 337.5 337.97957681221726 L 340.625 335.7965094780939 L 343.75 333.66175194594297 L 346.875 331.57144724021066 L 350 329.52199319442246 L 353.125 327.51001525082427 L 356.25 325.53234213928727 L 359.375 323.58598404544284 L 362.5 321.6681129330386 L 365.625 319.7760447314998 L 368.75 317.90722313820197 L 371.875 316.0592048172719 L 375 314.22964580385445 L 378.125 312.41628894554503 L 381.25 310.61695223176446 L 384.375 308.8295178777922 L 387.5 307.0519220434299 L 390.625 305.28214507718775 L 393.75 303.5182021857827 L 396.875 301.75813443581984 L 400 300 L 403.125 298.24186556418016 L 406.25 296.4817978142173 L 409.375 294.71785492281225 L 412.5 292.9480779565701 L 415.625 291.1704821222078 L 418.75 289.38304776823554 L 421.875 287.58371105445497 L 425 285.77035419614555 L 428.125 283.9407951827281 L 431.25 282.09277686179803 L 434.375 280.2239552685002 L 437.5 278.3318870669614 L 440.625 276.41401595455716 L 443.75 274.46765786071273 L 446.875 272.48998474917573 L 450 270.47800680557754 L 453.125 268.42855275978934 L 456.25 266.33824805405703 L 459.375 264.2034905219061 L 462.5 262.02042318778274 L 465.625 259.7849037314088 L 468.75 257.492470081456 L 471.875 255.13830150738158 L 475 252.71717446230863 L 478.125 250.2234122889049 L 481.25 247.65082772823007 L 484.375 244.99265696074585 L 487.5 242.24148364918435 L 490.625 239.38915113194233 L 493.75 236.42666051650855 L 496.875 233.34405192345042 L 500 230.13026550419457 L 503.125 226.7729780625247 L 506.25 223.25841010011868 L 509.375 219.57109681301642 L 512.5 215.69361489715794 L 515.625 211.6062548520447 L 518.75 207.28662562975347 L 521.875 202.7091747218886 L 525 197.8446017717829 L 528.125 192.6591370627139 L 531.25 187.11364707316716 L 534.375 181.16251669845698 L 537.5 174.75224022347987 L 540.625 167.81962845848798 L 543.75 160.28950421313843 L 546.875 152.07170720727834 L 550 143.0571542720866 L 553.125 133.11258787100348 L 554.6875 127.74159843328238 L 556.25 122.07347348765452 L 557.8125 116.08116166880592 L 559.375 109.73423704948513 L 560.9375 102.9983555487228 L 562.5 95.83460277234667 L 564.0625 88.19870711702325 L 565.625 80.04008450327495 L 567.1875 71.3006711523478 L 568.75 61.91348743225714 L 569.53125 56.95318308549065 L 570.3125 51.80085759650734 L 571.09375 46.44476569876889 L 571.875 40.87218522317988 L 572.65625 35.069313353648965 L 573.4375 29.02114937503501 L 574.21875 22.7113618161423 L 575 16.12213750980925 L 575.78125 9.234009632002483 L 576.5625 2.025661223292616 L 577.34375 -5.5262999848103505 M 641.40625 606.8082865746076 L 642.1875 599.1971704705317 L 642.96875 591.9337474103398 L 643.75 584.9942584731887 L 644.53125 578.3570603288722 L 645.3125 572.0023948679973 L 646.09375 565.9121882928114 L 646.875 560.0698753649328 L 647.65625 554.4602452100764 L 648.4375 549.069305656799 L 649.21875 543.8841635612577 L 650 538.8929189625921 L 651.5625 529.4489357091968 L 653.125 520.6587044320785 L 654.6875 512.454435056007 L 656.25 504.7773861432984 L 657.8125 497.57640346405276 L 659.375 490.8067329374016 L 660.9375 484.4290496709235 L 662.5 478.40865855332015 L 664.0625 472.7148320491549 L 665.625 467.3202584868243 L 668.75 457.33400299145865 L 671.875 448.2838782579919 L 675 440.0354910925778 L 678.125 432.47887479317967 L 681.25 425.5231733790293 L 684.375 419.0926558455215 L 687.5 413.1236877265411 L 690.625 407.5624020195539 L 693.75 402.36288801506294 L 696.875 397.4857684552667 L 700 392.89707121680726 L 703.125 388.5673267441216 L 706.25 384.4708402194208 L 709.375 380.5851002167212 L 712.5 376.8902948661651 L 715.625 373.36891337600184 L 718.75 370.00541582566234 L 721.875 366.7859579421484 L 725 363.6981604461624 L 728.125 360.7309147474666 L 731.25 357.8742184556261 L 734.375 355.11903547920883 L 737.5 352.45717650636334 L 740.625 349.8811964608383 L 743.75 347.3843061608353 L 746.875 344.9602959117461 L 750 342.6034691666384 L 753.125 340.3085847122494 L 756.25 338.0708061000083 L 759.375 335.885657254184 L 762.5 333.7489833626719 L 765.625 331.65691629801745 L 768.75 329.6058439331576 L 771.875 327.59238281288145 L 775 325.61335372199255 L 778.125 323.6657597576476 L 781.25 321.74676656878097 L 784.375 319.8536844718578 L 787.5 317.98395219100223 L 790.625 316.1351220030924 L 793.75 314.3048460957315 L 796.875 312.4908639689325 L 800 310.69099073057083" stroke-opacity="0.6980392156862745" stroke-linecap="round" stroke-linejoin="round" stroke-miterlimit="10" stroke-width="2.5"/><path fill="none" stroke="rgb(0,0,0)" paint-order="fill stroke markers" d=" M 368.20435992963564 605 L 608.9979779663064 -5" stroke-opacity="0.6980392156862745" stroke-linejoin="round" stroke-miterlimit="10" stroke-width="2.5" stroke-dasharray="10.5,8"/><path fill="rgb(68,68,68)" stroke="none" paint-order="stroke fill markers" d=" M 548.0171827304027 159.6151813203981 C 548.0171827304027 161.82432031972127 546.2263217297259 163.6151813203981 544.0171827304027 163.6151813203981 C 541.8080437310796 163.6151813203981 540.0171827304027 161.82432031972127 540.0171827304027 159.6151813203981 C 540.0171827304027 157.40604232107492 541.8080437310796 155.6151813203981 544.0171827304027 155.6151813203981 C 546.2263217297259 155.6151813203981 548.0171827304027 157.40604232107492 548.0171827304027 159.6151813203981 Z" fill-opacity="1"/><path fill="none" stroke="rgb(0,0,0)" paint-order="fill stroke markers" d=" M 548.0171827304027 159.6151813203981 C 548.0171827304027 161.82432031972127 546.2263217297259 163.6151813203981 544.0171827304027 163.6151813203981 C 541.8080437310796 163.6151813203981 540.0171827304027 161.82432031972127 540.0171827304027 159.6151813203981 C 540.0171827304027 157.40604232107492 541.8080437310796 155.6151813203981 544.0171827304027 155.6151813203981 C 546.2263217297259 155.6151813203981 548.0171827304027 157.40604232107492 548.0171827304027 159.6151813203981 Z" stroke-opacity="1" stroke-linecap="round" stroke-linejoin="round" stroke-miterlimit="10"/></g></g></svg>