<svg version="1.1" xmlns="http://www.w3.org/2000/svg" xmlns:xlink="http://www.w3.org/1999/xlink" width="800" height="600"><defs><clipPath id="VWAGXVMLzGeq"><path fill="none" stroke="none" d=" M 0 0 L 800 0 L 800 600 L 0 600 L 0 0 Z"/></clipPath></defs><g transform="scale(1,1)" clip-path="url(#VWAGXVMLzGeq)"><g><path fill="none" stroke="rgb(192,192,192)" paint-order="fill stroke markers" d=" M 66.5 0.5 L 66.5 600.5 M 66.5 0.5 L 66.5 600.5 M 133.5 0.5 L 133.5 600.5 M 200.5 0.5 L 200.5 600.5 M 266.5 0.5 L 266.5 600.5 M 333.5 0.5 L 333.5 600.5 M 466.5 0.5 L 466.5 600.5 M 533.5 0.5 L 533.5 600.5 M 600.5 0.5 L 600.5 600.5 M 666.5 0.5 L 666.5 600.5 M 733.5 0.5 L 733.5 600.5 M 800.5 0.5 L 800.5 600.5" stroke-opacity="1" stroke-linecap="round" stroke-linejoin="round" stroke-miterlimit="10"/><path fill="none" stroke="rgb(192,192,192)" paint-order="fill stroke markers" d=" M 13.5 0.5 L 13.5 600.5 M 26.5 0.5 L 26.5 600.5 M 39.5 0.5 L 39.5 600.5 M 53.5 0.5 L 53.5 600.5 M 79.5 0.5 L 79.5 600.5 M 93.5 0.5 L 93.5 600.5 M 106.5 0.5 L 106.5 600.5 M 119.5 0.5 L 119.5 600.5 M 146.5 0.5 L 146.5 600.5 M 160.5 0.5 L 160.5 600.5 M 173.5 0.5 L 173.5 600.5 M 186.5 0.5 L 186.5 600.5 M 213.5 0.5 L 213.5 600.5 M 226.5 0.5 L 226.5 600.5 M 240.5 0.5 L 240.5 600.5 M 253.5 0.5 L 253.5 600.5 M 280.5 0.5 L 280.5 600.5 M 293.5 0.5 L 293.5 600.5 M 306.5 0.5 L 306.5 600.5 M 320.5 0.5 L 320.5 600.5 M 346.5 0.5 L 346.5 600.5 M 360.5 0.5 L 360.5 600.5 M 373.5 0.5 L 373.5 600.5 M 386.5 0.5 L 386.5 600.5 M 413.5 0.5 L 413.5 600.5 M 426.5 0.5 L 426.5 600.5 M 440.5 0.5 L 440.5 600.5 M 453.5 0.5 L 453.5 600.5 M 480.5 0.5 L 480.5 600.5 M 493.5 0.5 L 493.5 600.5 M 506.5 0.5 L 506.5 600.5 M 520.5 0.5 L 520.5 600.5 M 546.5 0.5 L 546.5 600.5 M 560.5 0.5 L 560.5 600.5 M 573.5 0.5 L 573.5 600.5 M 586.5 0.5 L 586.5 600.5 M 613.5 0.5 L 613.5 600.5 M 626.5 0.5 L 626.5 600.5 M 640.5 0.5 L 640.5 600.5 M 653.5 0.5 L 653.5 600.5 M 680.5 0.5 L 680.5 600.5 M 693.5 0.5 L 693.5 600.5 M 706.5 0.5 L 706.5 600.5 M 720.5 0.5 L 720.5 600.5 M 746.5 0.5 L 746.5 600.5 M 760.5 0.5 L 760.5 600.5 M 773.5 0.5 L 773.5 600.5 M 786.5 0.5 L 786.5 600.5" stroke-opacity="0.23529411764705882" stroke-linecap="round" stroke-linejoin="round" stroke-miterlimit="10"/><path fill="none" stroke="rgb(192,192,192)" paint-order="fill stroke markers" d=" M 0.5 0.5 L 800.5 0.5 M 0.5 0.5 L 800.5 0.5 M 0.5 75.5 L 800.5 75.5 M 0.5 150.5 L 800.5 150.5 M 0.5 225.5 L 800.5 225.5 M 0.5 375.5 L 800.5 375.5 M 0.5 450.5 L 800.5 450.5 M 0.5 525.5 L 800.5 525.5 M 0.5 600.5 L 800.5 600.5" stroke-opacity="1" stroke-linecap="round" stroke-linejoin="round" stroke-miterlimit="10"/><path fill="none" stroke="rgb(192,192,192)" paint-order="fill stroke markers" d=" M 0.5 0.5 L 800.5 0.5 M 0.5 15.5 L 800.5 15.5 M 0.5 30.5 L 800.5 30.5 M 0.5 45.5 L 800.5 45.5 M 0.5 60.5 L 800.5 60.5 M 0.5 90.5 L 800.5 90.5 M 0.5 105.5 L 800.5 105.5 M 0.5 120.5 L 800.5 120.5 M 0.5 135.5 L 800.5 135.5 M 0.5 165.5 L 800.5 165.5 M 0.5 180.5 L 800.5 180.5 M 0.5 195.5 L 800.5 195.5 M 0.5 210.5 L 800.5 210.5 M 0.5 240.5 L 800.5 240.5 M 0.5 255.5 L 800.5 255.5 M 0.5 270.5 L 800.5 270.5 M 0.5 285.5 L 800.5 285.5 M 0.5 315.5 L 800.5 315.5 M 0.5 330.5 L 800.5 330.5 M 0.5 345.5 L 800.5 345.5 M 0.5 360.5 L 800.5 360.5 M 0.5 390.5 L 800.5 390.5 M 0.5 405.5 L 800.5 405.5 M 0.5 420.5 L 800.5 420.5 M 0.5 435.5 L 800.5 435.5 M 0.5 465.5 L 800.5 465.5 M 0.5 480.5 L 800.5 480.5 M 0.5 495.5 L 800.5 495.5 M 0.5 510.5 L 800.5 510.5 M 0.5 540.5 L 800.5 540.5 M 0.5 555.5 L 800.5 555.5 M 0.5 570.5 L 800.5 570.5 M 0.5 585.5 L 800.5 585.5" stroke-opacity="0.23529411764705882" stroke-linecap="round" stroke-linejoin="round" stroke-miterlimit="10"/><path fill="none" stroke="rgb(0,0,0)" paint-order="fill stroke markers" d=" M 400.5 2.5 L 400.5 600.5" stroke-opacity="1" stroke-miterlimit="10"/><path fill="none" stroke="rgb(0,0,0)" paint-order="fill stroke markers" d=" M 400.5 1.5 L 396.5 5.5" stroke-opacity="1" stroke-miterlimit="10"/><path fill="none" stroke="rgb(0,0,0)" paint-order="fill stroke markers" d=" M 400.5 1.5 L 404.5 5.5" stroke-opacity="1" stroke-miterlimit="10"/><path fill="none" stroke="rgb(0,0,0)" paint-order="fill stroke markers" d=" M 0.5 300.5 L 798.5 300.5" stroke-opacity="1" stroke-miterlimit="10"/><path fill="none" stroke="rgb(0,0,0)" paint-order="fill stroke markers" d=" M 799.5 300.5 L 795.5 296.5" stroke-opacity="1" stroke-miterlimit="10"/><path fill="none" stroke="rgb(0,0,0)" paint-order="fill stroke markers" d=" M 799.5 300.5 L 795.5 304.5" stroke-opacity="1" stroke-miterlimit="10"/><text fill="none" stroke="rgb(255,255,255)" font-family="geogebra-sans-serif, sans-serif" font-size="12px" font-style="normal" font-weight="normal" text-decoration="normal" x="61" y="316" text-anchor="start" dominant-baseline="alphabetic" stroke-opacity="1" stroke-linejoin="bevel" stroke-miterlimit="10" stroke-width="3">–5</text><text fill="rgb(0,0,0)" stroke="none" font-family="geogebra-sans-serif, sans-serif" font-size="12px" font-style="normal" font-weight="normal" text-decoration="normal" x="61" y="316" text-anchor="start" dominant-baseline="alphabetic" fill-opacity="1">–5</text><text fill="none" stroke="rgb(255,255,255)" font-family="geogebra-sans-serif, sans-serif" font-size="12px" font-style="normal" font-weight="normal" text-decoration="normal" x="128" y="316" text-anchor="start" dominant-baseline="alphabetic" stroke-opacity="1" stroke-linejoin="bevel" stroke-miterlimit="10" stroke-width="3">–4</text><text fill="rgb(0,0,0)" stroke="none" font-family="geogebra-sans-serif, sans-serif" font-size="12px" font-style="normal" font-weight="normal" text-decoration="normal" x="128" y="316" text-anchor="start" dominant-baseline="alphabetic" fill-opacity="1">–4</text><text fill="none" stroke="rgb(255,255,255)" font-family="geogebra-sans-serif, sans-serif" font-size="12px" font-style="normal" font-weight="normal" text-decoration="normal" x="195" y="316" text-anchor="start" dominant-baseline="alphabetic" stroke-opacity="1" stroke-linejoin="bevel" stroke-miterlimit="10" stroke-width="3">–3</text><text fill="rgb(0,0,0)" stroke="none" font-family="geogebra-sans-serif, sans-serif" font-size="12px" font-style="normal" font-weight="normal" text-decoration="normal" x="195" y="316" text-anchor="start" dominant-baseline="alphabetic" fill-opacity="1">–3</text><text fill="none" stroke="rgb(255,255,255)" font-family="geogebra-sans-serif, sans-serif" font-size="12px" font-style="normal" font-weight="normal" text-decoration="normal" x="261" y="316" text-anchor="start" dominant-baseline="alphabetic" stroke-opacity="1" stroke-linejoin="bevel" stroke-miterlimit="10" stroke-width="3">–2</text><text fill="rgb(0,0,0)" stroke="none" font-family="geogebra-sans-serif, sans-serif" font-size="12px" font-style="normal" font-weight="normal" text-decoration="normal" x="261" y="316" text-anchor="start" dominant-baseline="alphabetic" fill-opacity="1">–2</text><text fill="none" stroke="rgb(255,255,255)" font-family="geogebra-sans-serif, sans-serif" font-size="12px" font-style="normal" font-weight="normal" text-decoration="normal" x="328" y="316" text-anchor="start" dominant-baseline="alphabetic" stroke-opacity="1" stroke-linejoin="bevel" stroke-miterlimit="10" stroke-width="3">–1</text><text fill="rgb(0,0,0)" stroke="none" font-family="geogebra-sans-serif, sans-serif" font-size="12px" font-style="normal" font-weight="normal" text-decoration="normal" x="328" y="316" text-anchor="start" dominant-baseline="alphabetic" fill-opacity="1">–1</text><text fill="none" stroke="rgb(255,255,255)" font-family="geogebra-sans-serif, sans-serif" font-size="12px" font-style="normal" font-weight="normal" text-decoration="normal" x="464" y="316" text-anchor="start" dominant-baseline="alphabetic" stroke-opacity="1" stroke-linejoin="bevel" stroke-miterlimit="10" stroke-width="3">1</text><text fill="rgb(0,0,0)" stroke="none" font-family="geogebra-sans-serif, sans-serif" font-size="12px" font-style="normal" font-weight="normal" text-decoration="normal" x="464" y="316" text-anchor="start" dominant-baseline="alphabetic" fill-opacity="1">1</text><text fill="none" stroke="rgb(255,255,255)" font-family="geogebra-sans-serif, sans-serif" font-size="12px" font-style="normal" font-weight="normal" text-decoration="normal" x="531" y="316" text-anchor="start" dominant-baseline="alphabetic" stroke-opacity="1" stroke-linejoin="bevel" stroke-miterlimit="10" stroke-width="3">2</text><text fill="rgb(0,0,0)" stroke="none" font-family="geogebra-sans-serif, sans-serif" font-size="12px" font-style="normal" font-weight="normal" text-decoration="normal" x="531" y="316" text-anchor="start" dominant-baseline="alphabetic" fill-opacity="1">2</text><text fill="none" stroke="rgb(255,255,255)" font-family="geogebra-sans-serif, sans-serif" font-size="12px" font-style="normal" font-weight="normal" text-decoration="normal" x="598" y="316" text-anchor="start" dominant-baseline="alphabetic" stroke-opacity="1" stroke-linejoin="bevel" stroke-miterlimit="10" stroke-width="3">3</text><text fill="rgb(0,0,0)" stroke="none" font-family="geogebra-sans-serif, sans-serif" font-size="12px" font-style="normal" font-weight="normal" text-decoration="normal" x="598" y="316" text-anchor="start" dominant-baseline="alphabetic" fill-opacity="1">3</text><text fill="none" stroke="rgb(255,255,255)" font-family="geogebra-sans-serif, sans-serif" font-size="12px" font-style="normal" font-weight="normal" text-decoration="normal" x="664" y="316" text-anchor="start" dominant-baseline="alphabetic" stroke-opacity="1" stroke-linejoin="bevel" stroke-miterlimit="10" stroke-width="3">4</text><text fill="rgb(0,0,0)" stroke="none" font-family="geogebra-sans-serif, sans-serif" font-size="12px" font-style="normal" font-weight="normal" text-decoration="normal" x="664" y="316" text-anchor="start" dominant-baseline="alphabetic" fill-opacity="1">4</text><text fill="none" stroke="rgb(255,255,255)" font-family="geogebra-sans-serif, sans-serif" font-size="12px" font-style="normal" font-weight="normal" text-decoration="normal" x="731" y="316" text-anchor="start" dominant-baseline="alphabetic" stroke-opacity="1" stroke-linejoin="bevel" stroke-miterlimit="10" stroke-width="3">5</text><text fill="rgb(0,0,0)" stroke="none" font-family="geogebra-sans-serif, sans-serif" font-size="12px" font-style="normal" font-weight="normal" text-decoration="normal" x="731" y="316" text-anchor="start" dominant-baseline="alphabetic" fill-opacity="1">5</text><text fill="none" stroke="rgb(255,255,255)" font-family="geogebra-sans-serif, sans-serif" font-size="12px" font-style="normal" font-weight="normal" text-decoration="normal" x="380" y="530" text-anchor="start" dominant-baseline="alphabetic" stroke-opacity="1" stroke-linejoin="bevel" stroke-miterlimit="10" stroke-width="3">–6</text><text fill="rgb(0,0,0)" stroke="none" font-family="geogebra-sans-serif, sans-serif" font-size="12px" font-style="normal" font-weight="normal" text-decoration="normal" x="380" y="530" text-anchor="start" dominant-baseline="alphabetic" fill-opacity="1">–6</text><text fill="none" stroke="rgb(255,255,255)" font-family="geogebra-sans-serif, sans-serif" font-size="12px" font-style="normal" font-weight="normal" text-decoration="normal" x="380" y="455" text-anchor="start" dominant-baseline="alphabetic" stroke-opacity="1" stroke-linejoin="bevel" stroke-miterlimit="10" stroke-width="3">–4</text><text fill="rgb(0,0,0)" stroke="none" font-family="geogebra-sans-serif, sans-serif" font-size="12px" font-style="normal" font-weight="normal" text-decoration="normal" x="380" y="455" text-anchor="start" dominant-baseline="alphabetic" fill-opacity="1">–4</text><text fill="none" stroke="rgb(255,255,255)" font-family="geogebra-sans-serif, sans-serif" font-size="12px" font-style="normal" font-weight="normal" text-decoration="normal" x="380" y="380" text-anchor="start" dominant-baseline="alphabetic" stroke-opacity="1" stroke-linejoin="bevel" stroke-miterlimit="10" stroke-width="3">–2</text><text fill="rgb(0,0,0)" stroke="none" font-family="geogebra-sans-serif, sans-serif" font-size="12px" font-style="normal" font-weight="normal" text-decoration="normal" x="380" y="380" text-anchor="start" dominant-baseline="alphabetic" fill-opacity="1">–2</text><text fill="none" stroke="rgb(255,255,255)" font-family="geogebra-sans-serif, sans-serif" font-size="12px" font-style="normal" font-weight="normal" text-decoration="normal" x="387" y="230" text-anchor="start" dominant-baseline="alphabetic" stroke-opacity="1" stroke-linejoin="bevel" stroke-miterlimit="10" stroke-width="3">2</text><text fill="rgb(0,0,0)" stroke="none" font-family="geogebra-sans-serif, sans-serif" font-size="12px" font-style="normal" font-weight="normal" text-decoration="normal" x="387" y="230" text-anchor="start" dominant-baseline="alphabetic" fill-opacity="1">2</text><text fill="none" stroke="rgb(255,255,255)" font-family="geogebra-sans-serif, sans-serif" font-size="12px" font-style="normal" font-weight="normal" text-decoration="normal" x="387" y="155" text-anchor="start" dominant-baseline="alphabetic" stroke-opacity="1" stroke-linejoin="bevel" stroke-miterlimit="10" stroke-width="3">4</text><text fill="rgb(0,0,0)" stroke="none" font-family="geogebra-sans-serif, sans-serif" font-size="12px" font-style="normal" font-weight="normal" text-decoration="normal" x="387" y="155" text-anchor="start" dominant-baseline="alphabetic" fill-opacity="1">4</text><text fill="none" stroke="rgb(255,255,255)" font-family="geogebra-sans-serif, sans-serif" font-size="12px" font-style="normal" font-weight="normal" text-decoration="normal" x="387" y="80" text-anchor="start" dominant-baseline="alphabetic" stroke-opacity="1" stroke-linejoin="bevel" stroke-miterlimit="10" stroke-width="3">6</text><text fill="rgb(0,0,0)" stroke="none" font-family="geogebra-sans-serif, sans-serif" font-size="12px" font-style="normal" font-weight="normal" text-decoration="normal" x="387" y="80" text-anchor="start" dominant-baseline="alphabetic" fill-opacity="1">6</text><text fill="none" stroke="rgb(255,255,255)" font-family="geogebra-sans-serif, sans-serif" font-size="12px" font-style="normal" font-weight="normal" text-decoration="normal" x="387" y="316" text-anchor="start" dominant-baseline="alphabetic" stroke-opacity="1" stroke-linejoin="bevel" stroke-miterlimit="10" stroke-width="3">0</text><text fill="rgb(0,0,0)" stroke="none" font-family="geogebra-sans-serif, sans-serif" font-size="12px" font-style="normal" font-weight="normal" text-decoration="normal" x="387" y="316" text-anchor="start" dominant-baseline="alphabetic" fill-opacity="1">0</text><path fill="none" stroke="rgb(0,0,255)" paint-order="fill stroke markers" d=" M 0 289.0872678230719 L 3.125 287.1527905673231 L 6.25 285.1551206228336 L 9.375 283.08185461047856 L 12.5 280.9189374730265 L 15.625 278.650243028496 L 18.75 276.2570445293946 L 21.875 273.7173364821861 L 25 271.00495326090476 L 28.125 268.08840662872603 L 31.25 264.92932876224233 L 34.375 261.4803524156249 L 37.5 257.6821729055104 L 40.625 253.45939553189623 L 43.75 248.71453670670323 L 46.875 243.319141833849 L 50 237.1002597515854 L 53.125 229.81916855434173 L 56.25 221.1366242349691 L 57.8125 216.1225111383647 L 59.375 210.55349235266067 L 60.9375 204.32481349221104 L 62.5 197.30369128289863 L 64.0625 189.31925821914436 L 65.625 180.14784412380766 L 66.40625 175.02746025607965 L 67.1875 169.49086035806482 L 67.96875 163.48342577939223 L 68.75 156.940552622084 L 69.53125 149.78526017995574 L 70.3125 141.92507743965137 L 71.09375 133.2479399207418 L 71.875 123.61670932007036 L 72.265625 118.39182169717756 L 72.65625 112.8617447177333 L 73.046875 106.99851976226631 L 73.4375 100.77066625246792 L 73.828125 94.14260901698782 L 74.21875 87.07399017684577 L 74.609375 79.51883743572685 L 75 71.42455255594533 L 75.390625 62.73067296987065 L 75.78125 53.36734486036474 L 75.9765625 48.409782763836375 L 76.171875 43.25342611302443 L 76.3671875 37.88597897012943 L 76.5625 32.2941100602896 L 76.7578125 26.463341455920556 L 76.953125 20.377922583539714 L 77.1484375 14.020687244487192 L 77.34375 7.372890916435438 L 77.5390625 0.41402508816554473 L 77.734375 -6.878395245871616 M 93.9453125 606.9465316666785 L 94.140625 599.6509582664814 L 94.3359375 592.6891543199806 L 94.53125 586.0386157193639 L 94.7265625 579.6788169269623 L 94.921875 573.5909982048906 L 95.1171875 567.7579797235217 L 95.3125 562.1639986690157 L 95.5078125 556.794566097209 L 95.703125 551.6363407964991 L 96.09375 541.9052299205279 L 96.484375 532.882961610355 L 96.875 524.494250617051 L 97.265625 516.6741077705287 L 97.65625 509.36613801964074 L 98.046875 502.5211652724146 L 98.4375 496.09611309804575 L 98.828125 490.05308742132115 L 99.21875 484.35861992359855 L 99.609375 478.98304023491795 L 100 473.89995204566947 L 100.78125 464.5194671829397 L 101.5625 456.0564028202766 L 102.34375 448.3804366896265 L 103.125 441.3848072517869 L 103.90625 434.98121922164864 L 104.6875 429.0960161723413 L 105.46875 423.6672671852419 L 106.25 418.6425226233366 L 107.8125 409.6325407857053 L 109.375 401.77831199287886 L 110.9375 394.86372121310404 L 112.5 388.7233014913804 L 114.0625 383.2282128835933 L 115.625 378.27663467999207 L 118.75 369.6933350074598 L 121.875 362.4866174244406 L 125 356.32485423080556 L 128.125 350.9742273352124 L 131.25 346.26505823614855 L 134.375 342.0711436807687 L 137.5 338.296589557513 L 140.625 334.86714878450465 L 143.75 331.72436155796754 L 146.87499999999997 328.82149328039685 L 149.99999999999997 326.12065691667976 L 153.12499999999997 323.59073432732447 L 156.24999999999997 321.2058479227638 L 159.37499999999997 318.94421844398954 L 162.49999999999997 316.78729813325936 L 165.62499999999997 314.71910315395064 L 168.74999999999997 312.72569195630615 L 171.87499999999997 310.79475163115825 L 174.99999999999997 308.9152647660804 L 178.12499999999997 307.07723655959853 L 181.24999999999997 305.2714670069182 L 184.37499999999997 303.4893565242362 L 187.49999999999997 301.72273587347473 L 190.62499999999997 299.96371297905694 L 193.74999999999997 298.2045303861601 L 196.87499999999997 296.4374278193337 L 200 294.65450463471456 L 203.125 292.84757695213426 L 206.25 291.0080239044989 L 209.375 289.12661671560954 L 212.5 287.1933231390037 L 215.625 285.1970780334212 L 218.75 283.12550831866406 L 221.875 280.96459694999584 L 225 278.69826541668084 L 228.125 276.30784691958235 L 231.25 273.77141174681833 L 234.375 271.06289077218696 L 237.5 268.15091977691884 L 240.625 264.99729208716883 L 243.75 261.5548525669174 L 246.875 257.7645798902896 L 250 253.55146439159637 L 253.125 248.81855599246853 L 256.25 243.43815613672945 L 259.375 237.23841331048536 L 262.5 229.9822544537111 L 265.625 221.33299850427068 L 267.1875 216.33987075658786 L 268.75 210.79567072333992 L 270.3125 204.5966335312992 L 271.875 197.6113069283508 L 273.4375 189.67064778396076 L 275 180.5535405187039 L 275.78125 175.4653471716005 L 276.5625 169.96506231753355 L 277.34375 163.99880256600133 L 278.125 157.50287076340567 L 278.90625 150.40141476473417 L 279.6875 142.60338238459732 L 280.46875 133.9985126605803 L 281.25 124.45198779988388 L 281.640625 119.27502863572724 L 282.03125 113.7971929832855 L 282.421875 107.99105553212681 L 282.8125 101.82575407236413 L 283.203125 95.26643367508444 L 283.59375 88.27357940206244 L 283.984375 80.80221056120195 L 284.375 72.80090179175929 L 284.765625 64.21058594563988 L 285.15625 54.96307983038915 L 285.546875 44.97925495799879 L 285.7421875 39.68295091412591 L 285.9375 34.16674940209458 L 286.1328125 28.416564396372394 L 286.328125 22.417080597625045 L 286.5234375 16.151616343619708 L 286.71875 9.601967755732119 L 286.9140625 2.748231054611267 L 287.109375 -4.4314006078353145 L 287.3046875 -11.960870168603662 M 303.3203125 609.4336820265065 L 303.515625 602.0225514366666 L 303.7109375 594.9530986018904 L 303.90625 588.2021139333863 L 304.1015625 581.7484433619056 L 304.296875 575.5727657109528 L 304.4921875 569.6573983909252 L 304.6875 563.9861272982066 L 304.8828125 558.5440574729785 L 305.078125 553.3174816190979 L 305.46875 543.4612379377301 L 305.859375 534.3274007422328 L 306.25 525.8387930714796 L 306.640625 517.9288526948063 L 307.03125 510.53986784592644 L 307.421875 503.6215535205463 L 307.8125 497.12989403111106 L 308.203125 491.02619548086636 L 308.59375 485.2763050432595 L 308.984375 479.8499637641348 L 309.375 474.7202669833704 L 310.15625 465.25731735932976 L 310.9375 456.7238002249833 L 311.71875 448.98716938835366 L 312.5 441.9389312450954 L 313.28125 435.48942531248247 L 314.0625 429.56390738841003 L 314.84375 424.09957120174636 L 315.625 419.0432562838714 L 317.1875 409.9799577483625 L 318.75 402.08269861382666 L 320.3125 395.1328814752574 L 321.875 388.96326325617275 L 323.4375 383.44370606449826 L 325 378.4714228639567 L 328.125 369.85524789343077 L 331.25 362.62387988826003 L 334.375 356.4431764634164 L 337.5 351.07769911410855 L 340.625 346.3566871851233 L 343.75 342.15319255142106 L 346.875 338.37079494994066 L 350 334.93486724790273 L 353.125 331.7866697417457 L 356.25 328.8792581754078 L 359.375 326.17458613588497 L 362.5 323.64141276884567 L 365.625 321.25376495927196 L 368.75 318.98978840610863 L 371.875 316.8308759729715 L 375 314.7609965972112 L 378.125 312.76617106964363 L 381.25 310.8340564665193 L 384.375 308.953611569101 L 387.5 307.1148229019272 L 390.625 305.30847611588223 L 393.75 303.5259610217149 L 396.875 301.75910109289134 L 400 300 L 403.125 298.24089890710866 L 406.25 296.4740389782851 L 409.375 294.69152388411777 L 412.5 292.8851770980728 L 415.625 291.046388430899 L 418.75 289.1659435334807 L 421.875 287.23382893035637 L 425 285.2390034027888 L 428.125 283.1691240270285 L 431.25 281.01021159389137 L 434.375 278.74623504072804 L 437.5 276.35858723115433 L 440.625 273.82541386411503 L 443.75 271.1207418245922 L 446.875 268.2133302582543 L 450 265.06513275209727 L 453.125 261.62920505005934 L 456.25 257.84680744857894 L 459.375 253.64331281487674 L 462.5 248.92230088589145 L 465.625 243.55682353658358 L 468.75 237.37612011173994 L 471.875 230.14475210656923 L 475 221.52857713604328 L 476.5625 216.55629393550174 L 478.125 211.03673674382725 L 479.6875 204.86711852474258 L 481.25 197.91730138617334 L 482.8125 190.02004225163748 L 484.375 180.95674371612859 L 485.15625 175.90042879825367 L 485.9375 170.43609261158994 L 486.71875 164.5105746875175 L 487.5 158.06106875490462 L 488.28125 151.0128306116463 L 489.0625 143.27619977501675 L 489.84375 134.74268264067024 L 490.625 125.27973301662965 L 491.015625 120.1500362358652 L 491.40625 114.7236949567405 L 491.796875 108.97380451913367 L 492.1875 102.87010596888894 L 492.578125 96.37844647945374 L 492.96875 89.46013215407359 L 493.359375 82.0711473051937 L 493.75 74.16120692852036 L 494.140625 65.67259925776716 L 494.53125 56.53876206226991 L 494.921875 46.68251838090214 L 495.1171875 41.455942527021534 L 495.3125 36.01387270179339 L 495.5078125 30.342601609074734 L 495.703125 24.427234289047135 L 495.8984375 18.25155663809437 L 496.09375 11.797886066613671 L 496.2890625 5.046901398109696 L 496.484375 -2.0225514366665607 L 496.6796875 -9.433682026506517 M 512.6953125 611.9608701686036 L 512.890625 604.4314006078353 L 513.0859375 597.2517689453887 L 513.28125 590.3980322442678 L 513.4765625 583.8483836563803 L 513.671875 577.582919402375 L 513.8671875 571.5834356036275 L 514.0625 565.8332505979054 L 514.2578125 560.317049085874 L 514.453125 555.0207450420012 L 514.84375 545.0369201696109 L 515.234375 535.7894140543601 L 515.625 527.1990982082407 L 516.015625 519.197789438798 L 516.40625 511.7264205979376 L 516.796875 504.73356632491556 L 517.1875 498.17424592763587 L 517.578125 492.0089444678732 L 517.96875 486.2028070167145 L 518.359375 480.72497136427273 L 518.75 475.5480122001161 L 519.53125 466.00148733941967 L 520.3125 457.39661761540265 L 521.09375 449.59858523526583 L 521.875 442.49712923659433 L 522.65625 436.00119743399864 L 523.4375 430.0349376824664 L 524.21875 424.5346528283995 L 525 419.4464594812961 L 526.5625 410.32935221603924 L 528.125 402.3886930716492 L 529.6875 395.4033664687008 L 531.25 389.2043292766601 L 532.8125 383.66012924341214 L 534.375 378.6670014957293 L 537.5 370.0177455462889 L 540.625 362.7615866895146 L 543.75 356.56184386327055 L 546.875 351.18144400753147 L 550 346.44853560840363 L 553.125 342.2354201097104 L 556.25 338.4451474330826 L 559.375 335.00270791283117 L 562.5 331.84908022308116 L 565.625 328.93710922781304 L 568.75 326.22858825318167 L 571.875 323.69215308041765 L 575 321.30173458331916 L 578.125 319.03540305000416 L 581.25 316.87449168133594 L 584.375 314.8029219665788 L 587.5 312.8066768609963 L 590.625 310.87338328439046 L 593.75 308.9919760955011 L 596.875 307.15242304786574 L 600 305.34549536528544 L 603.125 303.5625721806663 L 606.25 301.7954696138399 L 609.375 300.03628702094306 L 612.5 298.27726412652527 L 615.625 296.5106434757638 L 618.75 294.7285329930818 L 621.875 292.92276344040147 L 625 291.0847352339196 L 628.125 289.20524836884175 L 631.25 287.27430804369385 L 634.375 285.28089684604936 L 637.5 283.21270186674064 L 640.625 281.05578155601046 L 643.75 278.7941520772362 L 646.875 276.40926567267553 L 650 273.87934308332024 L 653.125 271.17850671960315 L 656.25 268.27563844203246 L 659.375 265.13285121549535 L 662.5 261.703410442487 L 665.625 257.9288563192313 L 668.75 253.73494176385148 L 671.875 249.0257726647876 L 675 243.67514576919444 L 678.125 237.51338257555935 L 681.25 230.30666499254022 L 684.375 221.72336532000793 L 685.9375 216.7717871164067 L 687.5 211.2766985086196 L 689.0625 205.13627878689596 L 690.625 198.22168800712114 L 692.1875 190.36745921429468 L 693.75 181.35747737666338 L 694.53125 176.33273281475812 L 695.3125 170.9039838276587 L 696.09375 165.01878077835133 L 696.875 158.6151927482131 L 697.65625 151.6195633103735 L 698.4375 143.94359717972335 L 699.21875 135.48053281706026 L 700 126.10004795433056 L 700.390625 121.01695976508205 L 700.78125 115.64138007640142 L 701.171875 109.94691257867882 L 701.5625 103.90388690195428 L 701.953125 97.47883472758545 L 702.34375 90.63386198035926 L 702.734375 83.32589222947132 L 703.125 75.50574938294903 L 703.515625 67.11703838964502 L 703.90625 58.09477007947217 L 704.296875 48.3636592035009 L 704.4921875 43.205433902791015 L 704.6875 37.836001330984345 L 704.8828125 32.242020276478286 L 705.078125 26.40900179510936 L 705.2734375 20.321183073037616 L 705.46875 13.961384280636196 L 705.6640625 7.310845680019327 L 705.859375 0.349041733518618 L 706.0546875 -6.9465316666784815 M 722.265625 606.8783952458716 L 722.4609375 599.5859749118345 L 722.65625 592.6271090835646 L 722.8515625 585.9793127555129 L 723.046875 579.6220774164603 L 723.2421875 573.5366585440795 L 723.4375 567.7058899397105 L 723.6328125 562.1140210298706 L 723.828125 556.7465738869755 L 724.0234375 551.5902172361637 L 724.21875 546.6326551396353 L 724.609375 537.2693270301294 L 725 528.5754474440547 L 725.390625 520.4811625642732 L 725.78125 512.9260098231542 L 726.171875 505.8573909830122 L 726.5625 499.2293337475321 L 726.953125 493.0014802377337 L 727.34375 487.1382552822667 L 727.734375 481.60817830282247 L 728.125 476.38329067992964 L 728.90625 466.7520600792582 L 729.6875 458.0749225603486 L 730.46875 450.21473982004426 L 731.25 443.059447377916 L 732.03125 436.51657422060777 L 732.8125 430.5091396419352 L 733.59375 424.9725397439204 L 734.375 419.85215587619234 L 735.9375 410.68074178085567 L 737.5 402.6963087171014 L 739.0625 395.67518650778896 L 740.625 389.44650764733933 L 742.1875 383.8774888616353 L 743.75 378.8633757650309 L 746.875 370.18083144565827 L 750 362.8997402484146 L 753.125 356.68085816615104 L 756.25 351.28546329329674 L 759.375 346.54060446810377 L 762.5 342.3178270944896 L 765.625 338.5196475843751 L 768.75 335.07067123775767 L 771.875 331.91159337127397 L 775 328.99504673909524 L 778.125 326.2826635178139 L 781.25 323.7429554706054 L 784.375 321.349756971504 L 787.5 319.0810625269735 L 790.625 316.91814538952144 L 793.75 314.8448793771664 L 796.875 312.8472094326769 L 800 310.9127321769281" stroke-opacity="0.6980392156862745" stroke-linecap="round" stroke-linejoin="round" stroke-miterlimit="10" stroke-width="2.5"/><path fill="none" stroke="rgb(0,0,0)" paint-order="fill stroke markers" d=" M 119.41449230762811 605 L 805 177.03478317428227" stroke-opacity="0.6980392156862745" stroke-linejoin="round" stroke-miterlimit="10" stroke-width="2.5" stroke-dasharray="10.5,8"/><path fill="rgb(68,68,68)" stroke="none" paint-order="stroke fill markers" d=" M 592.112619901024 312.423080635887 C 592.112619901024 314.63221963521016 590.3217589003472 316.423080635887 588.112619901024 316.423080635887 C 585.9034809017008 316.423080635887 584.112619901024 314.63221963521016 584.112619901024 312.423080635887 C 584.112619901024 310.21394163656385 585.9034809017008 308.423080635887 588.112619901024 308.423080635887 C 590.3217589003472 308.423080635887 592.112619901024 310.21394163656385 592.112619901024 312.423080635887 Z" fill-opacity="1"/><path fill="none" stroke="rgb(0,0,0)" paint-order="fill stroke markers" d=" M 592.112619901024 312.423080635887 C 592.112619901024 314.63221963521016 590.3217589003472 316.423080635887 588.112619901024 316.423080635887 C 585.9034809017008 316.423080635887 584.112619901024 314.63221963521016 584.112619901024 312.423080635887 C 584.112619901024 310.21394163656385 585.9034809017008 308.423080635887 588.112619901024 308.423080635887 C 590.3217589003472 308.423080635887 592.112619901024 310.21394163656385 592.112619901024 312.423080635887 Z" stroke-opacity="1" stroke-linecap="round" stroke-linejoin="round" stroke-miterlimit="10"/></g></g></svg>